<mxfile host="Electron" modified="2024-12-19T00:25:19.775Z" agent="Mozilla/5.0 (Windows NT 10.0; Win64; x64) AppleWebKit/537.36 (KHTML, like Gecko) draw.io/22.1.16 Chrome/120.0.6099.109 Electron/28.1.0 Safari/537.36" etag="xnETTn_9wamFy1GIMZ0y" version="22.1.16" type="device">
  <diagram name="Strona-1" id="N0lBAnH6WS2XsxK_tPCB">
    <mxGraphModel dx="1430" dy="825" grid="1" gridSize="10" guides="1" tooltips="1" connect="1" arrows="1" fold="1" page="1" pageScale="1" pageWidth="827" pageHeight="1169" math="0" shadow="0">
      <root>
        <mxCell id="0" />
        <mxCell id="1" parent="0" />
        <mxCell id="H3g5-_nsX15HZ03bGgUe-18" value="" style="endArrow=none;dashed=1;html=1;rounded=0;" edge="1" parent="1">
          <mxGeometry width="50" height="50" relative="1" as="geometry">
            <mxPoint x="330" y="810" as="sourcePoint" />
            <mxPoint x="330" y="1120" as="targetPoint" />
          </mxGeometry>
        </mxCell>
        <mxCell id="H3g5-_nsX15HZ03bGgUe-19" value="" style="endArrow=none;dashed=1;html=1;rounded=0;" edge="1" parent="1">
          <mxGeometry width="50" height="50" relative="1" as="geometry">
            <mxPoint x="649.71" y="810" as="sourcePoint" />
            <mxPoint x="649.71" y="1120" as="targetPoint" />
          </mxGeometry>
        </mxCell>
        <mxCell id="BGXggU0a7uJpGwn3jMPa-40" value="" style="endArrow=none;dashed=1;html=1;rounded=0;" parent="1" edge="1">
          <mxGeometry width="50" height="50" relative="1" as="geometry">
            <mxPoint x="810" y="560" as="sourcePoint" />
            <mxPoint x="50" y="560" as="targetPoint" />
          </mxGeometry>
        </mxCell>
        <mxCell id="HYv8VMLn7dO6iZjnhJEX-4" value="Autograd" style="rounded=1;whiteSpace=wrap;html=1;" parent="1" vertex="1">
          <mxGeometry x="140" y="60" width="140" height="40" as="geometry" />
        </mxCell>
        <mxCell id="HYv8VMLn7dO6iZjnhJEX-22" style="edgeStyle=orthogonalEdgeStyle;rounded=0;orthogonalLoop=1;jettySize=auto;html=1;exitX=1;exitY=0.5;exitDx=0;exitDy=0;entryX=0;entryY=0.5;entryDx=0;entryDy=0;" parent="1" source="HYv8VMLn7dO6iZjnhJEX-5" target="HYv8VMLn7dO6iZjnhJEX-7" edge="1">
          <mxGeometry relative="1" as="geometry">
            <mxPoint x="340" y="130.09302325581405" as="targetPoint" />
          </mxGeometry>
        </mxCell>
        <mxCell id="HYv8VMLn7dO6iZjnhJEX-5" value="ATen" style="rounded=1;whiteSpace=wrap;html=1;" parent="1" vertex="1">
          <mxGeometry x="140" y="110" width="140" height="40" as="geometry" />
        </mxCell>
        <mxCell id="HYv8VMLn7dO6iZjnhJEX-6" value="TorchScript JIT Compiler" style="rounded=1;whiteSpace=wrap;html=1;" parent="1" vertex="1">
          <mxGeometry x="140" y="160" width="140" height="40" as="geometry" />
        </mxCell>
        <mxCell id="HYv8VMLn7dO6iZjnhJEX-10" value="" style="group;" parent="1" vertex="1" connectable="0">
          <mxGeometry x="330" y="110" width="100" height="40" as="geometry" />
        </mxCell>
        <mxCell id="HYv8VMLn7dO6iZjnhJEX-7" value="" style="rounded=0;whiteSpace=wrap;html=1;" parent="HYv8VMLn7dO6iZjnhJEX-10" vertex="1">
          <mxGeometry width="100" height="40" as="geometry" />
        </mxCell>
        <mxCell id="HYv8VMLn7dO6iZjnhJEX-9" value="" style="shape=image;verticalLabelPosition=bottom;labelBackgroundColor=default;verticalAlign=top;aspect=fixed;imageAspect=0;image=data:image/svg+xml,PHN2ZyB4bWxuczp4bGluaz0iaHR0cDovL3d3dy53My5vcmcvMTk5OS94bGluayIgeG1sbnM9Imh0dHA6Ly93d3cudzMub3JnLzIwMDAvc3ZnIiB2ZXJzaW9uPSIxLjEiIHZpZXdCb3g9IjAgMCA0ODggMTIxIiBoZWlnaHQ9IjEyMXB4IiB3aWR0aD0iNDg4cHgiPiYjeGE7ICYjeGE7IDxnIGlkPSJncm91cCI+JiN4YTsgIDxwYXRoIHN0cm9rZT0ibm9uZSIgZmlsbC1vcGFjaXR5PSIxIiBmaWxsPSIjZWU0YzJjIiBkPSJNNjMuMSAyOC4zIEw1Ni41IDM0LjkgQzY3LjMgNDUuNyA2Ny4zIDYzLjEgNTYuNSA3My43IDQ1LjcgODQuNSAyOC4zIDg0LjUgMTcuNyA3My43IDYuOSA2Mi45IDYuOSA0NS41IDE3LjcgMzQuOSBMMzQuOCAxNy44IDM3LjIgMTUuNCAzNy4yIDIuNSAxMS40IDI4LjMgQy0zIDQyLjcgLTMgNjUuOSAxMS40IDgwLjMgMjUuOCA5NC43IDQ5IDk0LjcgNjMuMSA4MC4zIDc3LjUgNjUuOCA3Ny41IDQyLjcgNjMuMSAyOC4zIFoiIGlkPSJQYXRoIi8+JiN4YTsgIDxwYXRoIHN0cm9rZT0ibm9uZSIgZmlsbC1vcGFjaXR5PSIxIiBmaWxsPSIjZWU0YzJjIiBkPSJNNTUgMjEuOSBDNTUgMjQuNTUxIDUyLjg1MSAyNi43IDUwLjIgMjYuNyA0Ny41NDkgMjYuNyA0NS40IDI0LjU1MSA0NS40IDIxLjkgNDUuNCAxOS4yNDkgNDcuNTQ5IDE3LjEgNTAuMiAxNy4xIDUyLjg1MSAxNy4xIDU1IDE5LjI0OSA1NSAyMS45IFoiIGlkPSJQYXRoLTEiLz4mI3hhOyA8L2c+JiN4YTsgPGcgaWQ9Imdyb3VwLTEiPiYjeGE7ICA8ZyBpZD0iZ3JvdXAtMiI+JiN4YTsgICA8cGF0aCBzdHJva2U9Im5vbmUiIGZpbGwtb3BhY2l0eT0iMSIgZmlsbD0iIzAwMDAwMCIgZD0iTTEyOS44IDYxLjMgTDExOC43IDYxLjMgMTE4LjcgODkuOCAxMTAuMyA4OS44IDExMC4zIDguNyAxMzAuNyA4LjcgQzE1MiA4LjcgMTYyLjIgMTkuMiAxNjIuMiAzMy45IDE2Mi41IDUyIDE0OS45IDYxLjMgMTI5LjggNjEuMyBaIE0xMzAuNyAxNi44IEMxMjkuOCAxNi44IDExOSAxNi44IDExOSAxNi44IEwxMTkgNTQuMSAxMzAuNCA1My44IEMxNDUuNyA1My41IDE1NC4xIDQ3LjUgMTU0LjEgMzQuOSAxNTQuMSAyMy4xIDE0NS43IDE2LjggMTMwLjcgMTYuOCBaIiBpZD0iUGF0aC0yIi8+JiN4YTsgICA8cGF0aCBzdHJva2U9Im5vbmUiIGZpbGwtb3BhY2l0eT0iMSIgZmlsbD0iIzAwMDAwMCIgZD0iTTE5OS44IDg5LjUgTDE5NSAxMDIuNCBDMTg5LjYgMTE2LjggMTgzLjkgMTIxIDE3NS44IDEyMSAxNzEuMyAxMjEgMTY4IDExOS44IDE2NC40IDExOC4zIEwxNjYuOCAxMTAuOCBDMTY5LjUgMTEyLjMgMTcyLjUgMTEzLjUgMTc1LjggMTEzLjUgMTgwLjMgMTEzLjUgMTgzLjYgMTExLjEgMTg4LjEgOTkuNyBMMTkyIDg5LjIgMTY4LjkgMzAuNiAxNzcuNiAzMC42IDE5Ni4yIDc5LjYgMjE0LjUgMzAuNiAyMjIuOSAzMC42IFoiIGlkPSJQYXRoLTMiLz4mI3hhOyAgIDxwYXRoIHN0cm9rZT0ibm9uZSIgZmlsbC1vcGFjaXR5PSIxIiBmaWxsPSIjMDAwMDAwIiBkPSJNMjUwLjMgMTYuOCBMMjUwLjMgOTAuMSAyNDEuOSA5MC4xIDI0MS45IDE2LjggMjEzLjQgMTYuOCAyMTMuNCA5IDI3OC42IDkgMjc4LjYgMTYuOCBDMjc4LjUgMTYuOCAyNTAuMyAxNi44IDI1MC4zIDE2LjggWiIgaWQ9IlBhdGgtNCIvPiYjeGE7ICAgPHBhdGggc3Ryb2tlPSJub25lIiBmaWxsLW9wYWNpdHk9IjEiIGZpbGw9IiMwMDAwMDAiIGQ9Ik0zMDIuMyA5MS42IEMyODUuOCA5MS42IDI3My44IDc5LjMgMjczLjggNjAuNCAyNzMuOCA0MS41IDI4Ni40IDI4LjkgMzAzLjIgMjguOSAzMjAgMjguOSAzMzEuNyA0MS4yIDMzMS43IDYwLjEgMzMxLjQgNzkgMzE4LjggOTEuNiAzMDIuMyA5MS42IFogTTMwMi42IDM2LjQgQzI5MCAzNi40IDI4MS45IDQ2LjMgMjgxLjkgNjAuNCAyODEuOSA3NC44IDI5MC4zIDg0LjcgMzAyLjkgODQuNyAzMTUuNSA4NC43IDMyMy42IDc0LjggMzIzLjYgNjAuNyAzMjMuNiA0NiAzMTUuMiAzNi40IDMwMi42IDM2LjQgWiIgaWQ9IlBhdGgtNSIvPiYjeGE7ICAgPHBhdGggc3Ryb2tlPSJub25lIiBmaWxsLW9wYWNpdHk9IjEiIGZpbGw9IiMwMDAwMDAiIGQ9Ik0zNTEuOCA5MC4xIEwzNDMuNyA5MC4xIDM0My43IDMwLjYgMzUxLjggMjguOCAzNTEuOCA0MS40IEMzNTUuNyAzMy45IDM2MS40IDI4LjggMzY5LjIgMjguOCAzNzMuMSAyOC44IDM3Ni43IDMwIDM3OS43IDMxLjUgTDM3Ny42IDM5IEMzNzQuOSAzNy41IDM3MS45IDM2LjMgMzY4LjYgMzYuMyAzNjIuMyAzNi4zIDM1Ni42IDQxLjEgMzUxLjggNTEuNiBaIiBpZD0iUGF0aC02Ii8+JiN4YTsgICA8cGF0aCBzdHJva2U9Im5vbmUiIGZpbGwtb3BhY2l0eT0iMSIgZmlsbD0iIzAwMDAwMCIgZD0iTTQxMS4zIDkxLjYgQzM5My4zIDkxLjYgMzgyLjIgNzguNyAzODIuMiA2MC40IDM4Mi4yIDQxLjggMzk0LjUgMjguOSA0MTEuMyAyOC45IDQxOC41IDI4LjkgNDI0LjggMzAuNyA0MjkuOSAzNCBMNDI3LjggNDEuMiBDNDIzLjMgMzguMiA0MTcuNiAzNi40IDQxMS4zIDM2LjQgMzk4LjQgMzYuNCAzOTAuNiA0NiAzOTAuNiA2MC4xIDM5MC42IDc0LjUgMzk5IDg0LjEgNDExLjYgODQuMSA0MTcuNiA4NC4xIDQyMy42IDgyLjMgNDI4LjEgNzkuMyBMNDI5LjkgODYuOCBDNDI0LjUgODkuOCA0MTguMiA5MS42IDQxMS4zIDkxLjYgWiIgaWQ9IlBhdGgtNyIvPiYjeGE7ICAgPHBhdGggc3Ryb2tlPSJub25lIiBmaWxsLW9wYWNpdHk9IjEiIGZpbGw9IiMwMDAwMDAiIGQ9Ik00NzkuNSA5MC4xIEw0NzkuNSA1MS42IEM0NzkuNSA0MS4xIDQ3NS4zIDM2LjYgNDY2LjkgMzYuNiA0NjAgMzYuNiA0NTMuNCA0MC4yIDQ0OC42IDQ1IEw0NDguNiA5MC4xIDQ0MC41IDkwLjEgNDQwLjUgMi43IDQ0OC42IDAuOSA0NDguNiAzOC41IEM0NTQuOSAzMi4yIDQ2Mi43IDI5LjIgNDY5LjMgMjkuMiA0ODAuNyAyOS4yIDQ4Ny45IDM2LjcgNDg3LjkgNDkuNiBMNDg3LjkgOTAuMiA0NzkuNSA5MC4yIFoiIGlkPSJQYXRoLTgiLz4mI3hhOyAgPC9nPiYjeGE7IDwvZz4mI3hhOzwvc3ZnPg==;" parent="HYv8VMLn7dO6iZjnhJEX-10" vertex="1">
          <mxGeometry x="9.670000000000016" y="10" width="80.66" height="20" as="geometry" />
        </mxCell>
        <mxCell id="HYv8VMLn7dO6iZjnhJEX-18" value="Silnik obliczeniowy (C++)" style="text;html=1;strokeColor=none;fillColor=none;align=center;verticalAlign=middle;whiteSpace=wrap;rounded=0;" parent="1" vertex="1">
          <mxGeometry x="130" y="10" width="160" height="30" as="geometry" />
        </mxCell>
        <mxCell id="HYv8VMLn7dO6iZjnhJEX-19" value="API najwyÅ¼szego poziomu (Python)" style="text;html=1;strokeColor=none;fillColor=none;align=center;verticalAlign=middle;whiteSpace=wrap;rounded=0;" parent="1" vertex="1">
          <mxGeometry x="350" y="10" width="200" height="30" as="geometry" />
        </mxCell>
        <mxCell id="HYv8VMLn7dO6iZjnhJEX-20" value="" style="endArrow=none;dashed=1;html=1;dashPattern=1 3;strokeWidth=2;rounded=0;" parent="1" edge="1">
          <mxGeometry width="50" height="50" relative="1" as="geometry">
            <mxPoint x="310" y="220" as="sourcePoint" />
            <mxPoint x="310" y="10" as="targetPoint" />
          </mxGeometry>
        </mxCell>
        <mxCell id="HYv8VMLn7dO6iZjnhJEX-21" value="" style="endArrow=none;html=1;rounded=1;exitX=1;exitY=0.5;exitDx=0;exitDy=0;entryX=1;entryY=0.5;entryDx=0;entryDy=0;curved=0;" parent="1" source="HYv8VMLn7dO6iZjnhJEX-6" target="HYv8VMLn7dO6iZjnhJEX-4" edge="1">
          <mxGeometry width="50" height="50" relative="1" as="geometry">
            <mxPoint x="290" y="180" as="sourcePoint" />
            <mxPoint x="290" y="30" as="targetPoint" />
            <Array as="points">
              <mxPoint x="290" y="180" />
              <mxPoint x="290" y="80" />
            </Array>
          </mxGeometry>
        </mxCell>
        <mxCell id="HYv8VMLn7dO6iZjnhJEX-23" value="" style="endArrow=none;html=1;rounded=1;exitX=1;exitY=0.5;exitDx=0;exitDy=0;curved=0;" parent="1" source="HYv8VMLn7dO6iZjnhJEX-7" edge="1">
          <mxGeometry width="50" height="50" relative="1" as="geometry">
            <mxPoint x="440" y="135" as="sourcePoint" />
            <mxPoint x="450" y="40" as="targetPoint" />
            <Array as="points">
              <mxPoint x="440" y="130" />
              <mxPoint x="440" y="40" />
            </Array>
          </mxGeometry>
        </mxCell>
        <mxCell id="HYv8VMLn7dO6iZjnhJEX-24" value="" style="endArrow=none;html=1;rounded=1;curved=0;" parent="1" edge="1">
          <mxGeometry width="50" height="50" relative="1" as="geometry">
            <mxPoint x="450" y="220" as="sourcePoint" />
            <mxPoint x="430" y="130" as="targetPoint" />
            <Array as="points">
              <mxPoint x="440" y="220" />
              <mxPoint x="440" y="130" />
            </Array>
          </mxGeometry>
        </mxCell>
        <mxCell id="yZOGqzpmT84Nma8d6q_o-4" value="" style="group" parent="1" vertex="1" connectable="0">
          <mxGeometry x="450" y="50" width="120" height="170" as="geometry" />
        </mxCell>
        <mxCell id="HYv8VMLn7dO6iZjnhJEX-12" value="torch.autograd" style="rounded=1;whiteSpace=wrap;html=1;" parent="yZOGqzpmT84Nma8d6q_o-4" vertex="1">
          <mxGeometry width="120" height="30" as="geometry" />
        </mxCell>
        <mxCell id="HYv8VMLn7dO6iZjnhJEX-13" value="torch.nn" style="rounded=1;whiteSpace=wrap;html=1;" parent="yZOGqzpmT84Nma8d6q_o-4" vertex="1">
          <mxGeometry y="40" width="120" height="30" as="geometry" />
        </mxCell>
        <mxCell id="HYv8VMLn7dO6iZjnhJEX-14" value="torch.multiprocessing" style="rounded=1;whiteSpace=wrap;html=1;" parent="yZOGqzpmT84Nma8d6q_o-4" vertex="1">
          <mxGeometry y="120" width="120" height="30" as="geometry" />
        </mxCell>
        <mxCell id="HYv8VMLn7dO6iZjnhJEX-15" value="torch.utils" style="rounded=1;whiteSpace=wrap;html=1;" parent="yZOGqzpmT84Nma8d6q_o-4" vertex="1">
          <mxGeometry y="80" width="120" height="30" as="geometry" />
        </mxCell>
        <mxCell id="yZOGqzpmT84Nma8d6q_o-3" value="..." style="text;html=1;strokeColor=none;fillColor=none;align=center;verticalAlign=middle;whiteSpace=wrap;rounded=0;" parent="yZOGqzpmT84Nma8d6q_o-4" vertex="1">
          <mxGeometry x="30" y="150" width="60" height="20" as="geometry" />
        </mxCell>
        <mxCell id="BGXggU0a7uJpGwn3jMPa-1" value="" style="endArrow=none;html=1;strokeWidth=1;rounded=0;dashed=1;" parent="1" edge="1">
          <mxGeometry width="50" height="50" relative="1" as="geometry">
            <mxPoint x="80" y="410" as="sourcePoint" />
            <mxPoint x="210" y="270" as="targetPoint" />
            <Array as="points">
              <mxPoint x="80" y="350" />
              <mxPoint x="210" y="350" />
            </Array>
          </mxGeometry>
        </mxCell>
        <mxCell id="BGXggU0a7uJpGwn3jMPa-2" value="WejÅciowy&lt;br&gt;kod bajtowy" style="rounded=1;whiteSpace=wrap;html=1;" parent="1" vertex="1">
          <mxGeometry y="320" width="70" height="60" as="geometry" />
        </mxCell>
        <mxCell id="BGXggU0a7uJpGwn3jMPa-3" value="PyFrameObject&lt;br&gt;.eval_frame" style="rounded=1;whiteSpace=wrap;html=1;" parent="1" vertex="1">
          <mxGeometry x="90" y="295" width="110" height="60" as="geometry" />
        </mxCell>
        <mxCell id="BGXggU0a7uJpGwn3jMPa-4" value="Funkcja eval_frame nadpisana&lt;br&gt;przez PyTorch" style="rounded=1;whiteSpace=wrap;html=1;" parent="1" vertex="1">
          <mxGeometry x="90" y="345" width="110" height="60" as="geometry" />
        </mxCell>
        <mxCell id="BGXggU0a7uJpGwn3jMPa-5" value="Analiza symboliczna&lt;br&gt;i tworzenie Grafu FX" style="rounded=1;whiteSpace=wrap;html=1;" parent="1" vertex="1">
          <mxGeometry x="220" y="320" width="90" height="60" as="geometry" />
        </mxCell>
        <mxCell id="BGXggU0a7uJpGwn3jMPa-6" value="Kompilacja&lt;br&gt;Grafu FX&lt;br&gt;do Tritona&lt;br&gt;lub OpenMP" style="rounded=1;whiteSpace=wrap;html=1;" parent="1" vertex="1">
          <mxGeometry x="330" y="320" width="100" height="60" as="geometry" />
        </mxCell>
        <mxCell id="BGXggU0a7uJpGwn3jMPa-7" value="Generacja nowego kodu bajtowego ze zoptymalizowanymi operatorami" style="rounded=1;whiteSpace=wrap;html=1;" parent="1" vertex="1">
          <mxGeometry x="590" y="320" width="120" height="60" as="geometry" />
        </mxCell>
        <mxCell id="BGXggU0a7uJpGwn3jMPa-8" value="Generacja funkcji sprawdzajÄcych integralnoÅÄ cache" style="rounded=1;whiteSpace=wrap;html=1;" parent="1" vertex="1">
          <mxGeometry x="450" y="320" width="120" height="60" as="geometry" />
        </mxCell>
        <mxCell id="BGXggU0a7uJpGwn3jMPa-9" value="Wykonanie kodu" style="rounded=1;whiteSpace=wrap;html=1;" parent="1" vertex="1">
          <mxGeometry x="730" y="320" width="80" height="60" as="geometry" />
        </mxCell>
        <mxCell id="BGXggU0a7uJpGwn3jMPa-10" value="" style="endArrow=classic;html=1;rounded=0;exitX=1;exitY=0.5;exitDx=0;exitDy=0;entryX=0;entryY=0.5;entryDx=0;entryDy=0;" parent="1" source="BGXggU0a7uJpGwn3jMPa-2" target="BGXggU0a7uJpGwn3jMPa-3" edge="1">
          <mxGeometry width="50" height="50" relative="1" as="geometry">
            <mxPoint x="80" y="300" as="sourcePoint" />
            <mxPoint x="130" y="250" as="targetPoint" />
            <Array as="points" />
          </mxGeometry>
        </mxCell>
        <mxCell id="BGXggU0a7uJpGwn3jMPa-11" value="" style="endArrow=classic;html=1;rounded=0;exitX=1;exitY=0.5;exitDx=0;exitDy=0;entryX=0;entryY=0.5;entryDx=0;entryDy=0;" parent="1" source="BGXggU0a7uJpGwn3jMPa-4" target="BGXggU0a7uJpGwn3jMPa-5" edge="1">
          <mxGeometry width="50" height="50" relative="1" as="geometry">
            <mxPoint x="210" y="405" as="sourcePoint" />
            <mxPoint x="230" y="385" as="targetPoint" />
            <Array as="points" />
          </mxGeometry>
        </mxCell>
        <mxCell id="BGXggU0a7uJpGwn3jMPa-12" value="" style="endArrow=classic;html=1;rounded=0;exitX=1;exitY=0.5;exitDx=0;exitDy=0;entryX=0;entryY=0.5;entryDx=0;entryDy=0;" parent="1" source="BGXggU0a7uJpGwn3jMPa-5" target="BGXggU0a7uJpGwn3jMPa-6" edge="1">
          <mxGeometry width="50" height="50" relative="1" as="geometry">
            <mxPoint x="210" y="385" as="sourcePoint" />
            <mxPoint x="230" y="360" as="targetPoint" />
            <Array as="points" />
          </mxGeometry>
        </mxCell>
        <mxCell id="BGXggU0a7uJpGwn3jMPa-13" value="" style="endArrow=classic;html=1;rounded=0;exitX=1;exitY=0.5;exitDx=0;exitDy=0;entryX=0;entryY=0.5;entryDx=0;entryDy=0;" parent="1" edge="1">
          <mxGeometry width="50" height="50" relative="1" as="geometry">
            <mxPoint x="430" y="349.9" as="sourcePoint" />
            <mxPoint x="450" y="349.9" as="targetPoint" />
            <Array as="points" />
          </mxGeometry>
        </mxCell>
        <mxCell id="BGXggU0a7uJpGwn3jMPa-14" value="" style="endArrow=classic;html=1;rounded=0;exitX=1;exitY=0.5;exitDx=0;exitDy=0;entryX=0;entryY=0.5;entryDx=0;entryDy=0;" parent="1" edge="1">
          <mxGeometry width="50" height="50" relative="1" as="geometry">
            <mxPoint x="570" y="349.9" as="sourcePoint" />
            <mxPoint x="590" y="349.9" as="targetPoint" />
            <Array as="points" />
          </mxGeometry>
        </mxCell>
        <mxCell id="BGXggU0a7uJpGwn3jMPa-15" value="" style="endArrow=classic;html=1;rounded=0;exitX=1;exitY=0.5;exitDx=0;exitDy=0;entryX=0;entryY=0.5;entryDx=0;entryDy=0;" parent="1" edge="1">
          <mxGeometry width="50" height="50" relative="1" as="geometry">
            <mxPoint x="710" y="349.9" as="sourcePoint" />
            <mxPoint x="730" y="349.9" as="targetPoint" />
            <Array as="points" />
          </mxGeometry>
        </mxCell>
        <mxCell id="BGXggU0a7uJpGwn3jMPa-16" value="" style="endArrow=none;dashed=1;html=1;rounded=0;" parent="1" edge="1">
          <mxGeometry width="50" height="50" relative="1" as="geometry">
            <mxPoint x="320" y="410" as="sourcePoint" />
            <mxPoint x="320" y="270" as="targetPoint" />
          </mxGeometry>
        </mxCell>
        <mxCell id="BGXggU0a7uJpGwn3jMPa-17" value="" style="endArrow=none;dashed=1;html=1;rounded=0;" parent="1" edge="1">
          <mxGeometry width="50" height="50" relative="1" as="geometry">
            <mxPoint x="440" y="410" as="sourcePoint" />
            <mxPoint x="440" y="270" as="targetPoint" />
          </mxGeometry>
        </mxCell>
        <mxCell id="BGXggU0a7uJpGwn3jMPa-18" value="" style="endArrow=none;dashed=1;html=1;rounded=0;" parent="1" edge="1">
          <mxGeometry width="50" height="50" relative="1" as="geometry">
            <mxPoint x="720" y="410" as="sourcePoint" />
            <mxPoint x="720" y="270" as="targetPoint" />
          </mxGeometry>
        </mxCell>
        <mxCell id="BGXggU0a7uJpGwn3jMPa-19" value="TorchDynamo" style="text;html=1;strokeColor=none;fillColor=none;align=center;verticalAlign=middle;whiteSpace=wrap;rounded=0;" parent="1" vertex="1">
          <mxGeometry x="225" y="270" width="80" height="20" as="geometry" />
        </mxCell>
        <mxCell id="BGXggU0a7uJpGwn3jMPa-20" value="CPython" style="text;html=1;strokeColor=none;fillColor=none;align=center;verticalAlign=middle;whiteSpace=wrap;rounded=0;" parent="1" vertex="1">
          <mxGeometry x="70" y="270" width="60" height="20" as="geometry" />
        </mxCell>
        <mxCell id="BGXggU0a7uJpGwn3jMPa-21" value="TorchInductor" style="text;html=1;strokeColor=none;fillColor=none;align=center;verticalAlign=middle;whiteSpace=wrap;rounded=0;" parent="1" vertex="1">
          <mxGeometry x="340" y="270" width="80" height="20" as="geometry" />
        </mxCell>
        <mxCell id="BGXggU0a7uJpGwn3jMPa-22" value="TorchDynamo" style="text;html=1;strokeColor=none;fillColor=none;align=center;verticalAlign=middle;whiteSpace=wrap;rounded=0;" parent="1" vertex="1">
          <mxGeometry x="540" y="270" width="80" height="20" as="geometry" />
        </mxCell>
        <mxCell id="BGXggU0a7uJpGwn3jMPa-23" value="CPython/CUDA" style="text;html=1;strokeColor=none;fillColor=none;align=center;verticalAlign=middle;whiteSpace=wrap;rounded=0;" parent="1" vertex="1">
          <mxGeometry x="725" y="260" width="90" height="40" as="geometry" />
        </mxCell>
        <mxCell id="BGXggU0a7uJpGwn3jMPa-25" value="WejÅciowy kod bajtowy" style="rounded=1;whiteSpace=wrap;html=1;" parent="1" vertex="1">
          <mxGeometry x="20" y="840" width="300" height="30" as="geometry" />
        </mxCell>
        <mxCell id="BGXggU0a7uJpGwn3jMPa-26" value="WywoÅanie eval_frame na PyFrameObject danej funkcji" style="rounded=1;whiteSpace=wrap;html=1;" parent="1" vertex="1">
          <mxGeometry x="159" y="490" width="110" height="80" as="geometry" />
        </mxCell>
        <mxCell id="BGXggU0a7uJpGwn3jMPa-27" value="Wykorzystanie eval_frame nadpisanej&lt;br&gt;przez PyTorch" style="rounded=1;whiteSpace=wrap;html=1;" parent="1" vertex="1">
          <mxGeometry x="159" y="560" width="110" height="70" as="geometry" />
        </mxCell>
        <mxCell id="BGXggU0a7uJpGwn3jMPa-28" value="Analiza symboliczna&lt;br&gt;i tworzenie Grafu FX" style="rounded=1;whiteSpace=wrap;html=1;" parent="1" vertex="1">
          <mxGeometry x="290" y="570" width="90" height="60" as="geometry" />
        </mxCell>
        <mxCell id="BGXggU0a7uJpGwn3jMPa-29" value="Kompilacja&lt;br&gt;Grafu FX&lt;br&gt;do Tritona&lt;br&gt;lub OpenMP" style="rounded=1;whiteSpace=wrap;html=1;" parent="1" vertex="1">
          <mxGeometry x="370" y="650" width="100" height="60" as="geometry" />
        </mxCell>
        <mxCell id="BGXggU0a7uJpGwn3jMPa-30" value="Generacja funkcji sprawdzajÄcych integralnoÅÄ cache" style="rounded=1;whiteSpace=wrap;html=1;" parent="1" vertex="1">
          <mxGeometry x="460" y="570" width="120" height="60" as="geometry" />
        </mxCell>
        <mxCell id="BGXggU0a7uJpGwn3jMPa-31" value="Generacja nowego kodu bajtowego ze zoptymalizowanymi operatorami" style="rounded=1;whiteSpace=wrap;html=1;" parent="1" vertex="1">
          <mxGeometry x="600" y="570" width="120" height="60" as="geometry" />
        </mxCell>
        <mxCell id="BGXggU0a7uJpGwn3jMPa-32" value="Wykonanie kodu" style="rounded=1;whiteSpace=wrap;html=1;" parent="1" vertex="1">
          <mxGeometry x="710" y="490" width="80" height="60" as="geometry" />
        </mxCell>
        <mxCell id="BGXggU0a7uJpGwn3jMPa-33" value="" style="endArrow=none;dashed=1;html=1;rounded=0;" parent="1" edge="1">
          <mxGeometry width="50" height="50" relative="1" as="geometry">
            <mxPoint x="350" y="460" as="sourcePoint" />
            <mxPoint x="50" y="460" as="targetPoint" />
          </mxGeometry>
        </mxCell>
        <mxCell id="BGXggU0a7uJpGwn3jMPa-34" value="" style="endArrow=classic;html=1;rounded=0;exitX=1;exitY=0.5;exitDx=0;exitDy=0;entryX=-0.004;entryY=0.373;entryDx=0;entryDy=0;entryPerimeter=0;" parent="1" target="BGXggU0a7uJpGwn3jMPa-26" edge="1">
          <mxGeometry width="50" height="50" relative="1" as="geometry">
            <mxPoint x="140" y="519.8299999999999" as="sourcePoint" />
            <mxPoint x="160" y="520" as="targetPoint" />
            <Array as="points" />
          </mxGeometry>
        </mxCell>
        <mxCell id="BGXggU0a7uJpGwn3jMPa-35" value="" style="endArrow=classic;html=1;rounded=0;exitX=1;exitY=0.5;exitDx=0;exitDy=0;entryX=0;entryY=0.5;entryDx=0;entryDy=0;" parent="1" target="BGXggU0a7uJpGwn3jMPa-28" edge="1">
          <mxGeometry width="50" height="50" relative="1" as="geometry">
            <mxPoint x="269" y="599.8299999999999" as="sourcePoint" />
            <mxPoint x="289" y="599.8299999999999" as="targetPoint" />
            <Array as="points" />
          </mxGeometry>
        </mxCell>
        <mxCell id="BGXggU0a7uJpGwn3jMPa-36" value="" style="endArrow=classic;html=1;rounded=0;exitX=1;exitY=0.5;exitDx=0;exitDy=0;entryX=0;entryY=0.5;entryDx=0;entryDy=0;" parent="1" edge="1">
          <mxGeometry width="50" height="50" relative="1" as="geometry">
            <mxPoint x="580" y="599.8299999999999" as="sourcePoint" />
            <mxPoint x="600" y="599.8299999999999" as="targetPoint" />
            <Array as="points" />
          </mxGeometry>
        </mxCell>
        <mxCell id="BGXggU0a7uJpGwn3jMPa-37" value="" style="endArrow=classic;html=1;rounded=1;exitX=0.5;exitY=0;exitDx=0;exitDy=0;entryX=0;entryY=0.5;entryDx=0;entryDy=0;curved=0;" parent="1" source="BGXggU0a7uJpGwn3jMPa-31" target="BGXggU0a7uJpGwn3jMPa-32" edge="1">
          <mxGeometry width="50" height="50" relative="1" as="geometry">
            <mxPoint x="650" y="529.8299999999999" as="sourcePoint" />
            <mxPoint x="670" y="529.8299999999999" as="targetPoint" />
            <Array as="points">
              <mxPoint x="660" y="520" />
            </Array>
          </mxGeometry>
        </mxCell>
        <mxCell id="BGXggU0a7uJpGwn3jMPa-38" value="" style="endArrow=classic;html=1;rounded=1;exitX=0.5;exitY=1;exitDx=0;exitDy=0;entryX=0;entryY=0.5;entryDx=0;entryDy=0;curved=0;" parent="1" source="BGXggU0a7uJpGwn3jMPa-28" target="BGXggU0a7uJpGwn3jMPa-29" edge="1">
          <mxGeometry width="50" height="50" relative="1" as="geometry">
            <mxPoint x="290" y="700" as="sourcePoint" />
            <mxPoint x="340" y="650" as="targetPoint" />
            <Array as="points">
              <mxPoint x="335" y="680" />
            </Array>
          </mxGeometry>
        </mxCell>
        <mxCell id="BGXggU0a7uJpGwn3jMPa-39" value="" style="endArrow=classic;html=1;rounded=1;exitX=1;exitY=0.5;exitDx=0;exitDy=0;entryX=0.5;entryY=1;entryDx=0;entryDy=0;curved=0;" parent="1" source="BGXggU0a7uJpGwn3jMPa-29" target="BGXggU0a7uJpGwn3jMPa-30" edge="1">
          <mxGeometry width="50" height="50" relative="1" as="geometry">
            <mxPoint x="530" y="720" as="sourcePoint" />
            <mxPoint x="580" y="670" as="targetPoint" />
            <Array as="points">
              <mxPoint x="520" y="680" />
            </Array>
          </mxGeometry>
        </mxCell>
        <mxCell id="BGXggU0a7uJpGwn3jMPa-43" value="" style="endArrow=none;dashed=1;html=1;rounded=0;" parent="1" edge="1">
          <mxGeometry width="50" height="50" relative="1" as="geometry">
            <mxPoint x="810" y="640" as="sourcePoint" />
            <mxPoint x="50" y="640" as="targetPoint" />
          </mxGeometry>
        </mxCell>
        <mxCell id="BGXggU0a7uJpGwn3jMPa-53" value="" style="endArrow=none;dashed=1;html=1;rounded=0;" parent="1" edge="1">
          <mxGeometry width="50" height="50" relative="1" as="geometry">
            <mxPoint x="810" y="460" as="sourcePoint" />
            <mxPoint x="510" y="460" as="targetPoint" />
          </mxGeometry>
        </mxCell>
        <mxCell id="BGXggU0a7uJpGwn3jMPa-55" value="TorchDynamo" style="text;html=1;strokeColor=default;fillColor=none;align=center;verticalAlign=middle;whiteSpace=wrap;rounded=0;dashed=1;" parent="1" vertex="1">
          <mxGeometry x="70" y="560" width="80" height="20" as="geometry" />
        </mxCell>
        <mxCell id="BGXggU0a7uJpGwn3jMPa-57" value="TorchInductor" style="text;html=1;strokeColor=default;fillColor=none;align=center;verticalAlign=middle;whiteSpace=wrap;rounded=0;dashed=1;" parent="1" vertex="1">
          <mxGeometry x="70" y="640" width="80" height="20" as="geometry" />
        </mxCell>
        <mxCell id="BGXggU0a7uJpGwn3jMPa-58" value="CPython" style="text;html=1;strokeColor=default;fillColor=none;align=center;verticalAlign=middle;whiteSpace=wrap;rounded=0;dashed=1;" parent="1" vertex="1">
          <mxGeometry x="70" y="460" width="80" height="20" as="geometry" />
        </mxCell>
        <mxCell id="BGXggU0a7uJpGwn3jMPa-60" value="CPython/CUDA" style="text;html=1;strokeColor=default;fillColor=none;align=center;verticalAlign=middle;whiteSpace=wrap;rounded=0;dashed=1;" parent="1" vertex="1">
          <mxGeometry x="120" y="1030" width="110" height="20" as="geometry" />
        </mxCell>
        <mxCell id="BGXggU0a7uJpGwn3jMPa-62" value="&lt;h1&gt;&lt;b&gt;WERSJA 1&lt;/b&gt;&lt;/h1&gt;" style="text;html=1;strokeColor=#b85450;fillColor=#f8cecc;align=center;verticalAlign=middle;whiteSpace=wrap;rounded=0;" parent="1" vertex="1">
          <mxGeometry x="50" y="230" width="150" height="30" as="geometry" />
        </mxCell>
        <mxCell id="BGXggU0a7uJpGwn3jMPa-63" value="&lt;h1&gt;&lt;b&gt;WERSJA 2&lt;/b&gt;&lt;/h1&gt;" style="text;html=1;strokeColor=#b85450;fillColor=#f8cecc;align=center;verticalAlign=middle;whiteSpace=wrap;rounded=0;" parent="1" vertex="1">
          <mxGeometry x="50" y="420" width="150" height="30" as="geometry" />
        </mxCell>
        <mxCell id="H3g5-_nsX15HZ03bGgUe-1" value="&lt;h1&gt;&lt;b&gt;WERSJA 3&lt;/b&gt;&lt;/h1&gt;" style="text;html=1;strokeColor=#b85450;fillColor=#f8cecc;align=center;verticalAlign=middle;whiteSpace=wrap;rounded=0;" vertex="1" parent="1">
          <mxGeometry x="20" y="720" width="150" height="30" as="geometry" />
        </mxCell>
        <mxCell id="H3g5-_nsX15HZ03bGgUe-2" value="WejÅciowy&lt;br&gt;kod bajtowy" style="rounded=1;whiteSpace=wrap;html=1;" vertex="1" parent="1">
          <mxGeometry x="80" y="500" width="70" height="60" as="geometry" />
        </mxCell>
        <mxCell id="H3g5-_nsX15HZ03bGgUe-3" value="WywoÅanie eval_frame na PyFrameObject danej funkcji" style="rounded=1;whiteSpace=wrap;html=1;align=left;" vertex="1" parent="1">
          <mxGeometry x="20" y="890" width="340" height="30" as="geometry" />
        </mxCell>
        <mxCell id="H3g5-_nsX15HZ03bGgUe-5" value="Wykorzystanie eval_frame nadpisanej przez PyTorch" style="rounded=1;whiteSpace=wrap;html=1;" vertex="1" parent="1">
          <mxGeometry x="340" y="890" width="300" height="30" as="geometry" />
        </mxCell>
        <mxCell id="H3g5-_nsX15HZ03bGgUe-6" value="Analiza symboliczna i tworzenie Grafu FX" style="rounded=1;whiteSpace=wrap;html=1;" vertex="1" parent="1">
          <mxGeometry x="340" y="940" width="300" height="30" as="geometry" />
        </mxCell>
        <mxCell id="H3g5-_nsX15HZ03bGgUe-7" value="Generacja funkcji sprawdzajÄcych integralnoÅÄ cache" style="rounded=1;whiteSpace=wrap;html=1;" vertex="1" parent="1">
          <mxGeometry x="340" y="1000" width="300" height="30" as="geometry" />
        </mxCell>
        <mxCell id="H3g5-_nsX15HZ03bGgUe-8" value="Generacja nowego kodu bajtowego ze zoptymalizowanymi operatorami" style="rounded=1;whiteSpace=wrap;html=1;" vertex="1" parent="1">
          <mxGeometry x="294" y="1050" width="392" height="30" as="geometry" />
        </mxCell>
        <mxCell id="H3g5-_nsX15HZ03bGgUe-9" value="Wykonanie kodu" style="rounded=1;whiteSpace=wrap;html=1;" vertex="1" parent="1">
          <mxGeometry x="20" y="1090" width="300" height="30" as="geometry" />
        </mxCell>
        <mxCell id="H3g5-_nsX15HZ03bGgUe-10" value="Kompilacja Grafu FX do Tritona lub OpenMP" style="rounded=1;whiteSpace=wrap;html=1;" vertex="1" parent="1">
          <mxGeometry x="660" y="970" width="260" height="30" as="geometry" />
        </mxCell>
        <mxCell id="H3g5-_nsX15HZ03bGgUe-12" value="" style="endArrow=classic;html=1;rounded=0;exitX=0.5;exitY=1;exitDx=0;exitDy=0;entryX=0.441;entryY=0;entryDx=0;entryDy=0;entryPerimeter=0;" edge="1" parent="1" source="BGXggU0a7uJpGwn3jMPa-25" target="H3g5-_nsX15HZ03bGgUe-3">
          <mxGeometry width="50" height="50" relative="1" as="geometry">
            <mxPoint x="189" y="1000" as="sourcePoint" />
            <mxPoint x="239" y="950" as="targetPoint" />
          </mxGeometry>
        </mxCell>
        <mxCell id="H3g5-_nsX15HZ03bGgUe-13" value="" style="endArrow=classic;html=1;rounded=1;curved=0;exitX=1;exitY=0.5;exitDx=0;exitDy=0;entryX=0.5;entryY=0;entryDx=0;entryDy=0;" edge="1" parent="1" source="H3g5-_nsX15HZ03bGgUe-6" target="H3g5-_nsX15HZ03bGgUe-10">
          <mxGeometry width="50" height="50" relative="1" as="geometry">
            <mxPoint x="690" y="950" as="sourcePoint" />
            <mxPoint x="740" y="900" as="targetPoint" />
            <Array as="points">
              <mxPoint x="790" y="955" />
            </Array>
          </mxGeometry>
        </mxCell>
        <mxCell id="H3g5-_nsX15HZ03bGgUe-14" value="" style="endArrow=classic;html=1;rounded=1;curved=0;exitX=0.5;exitY=1;exitDx=0;exitDy=0;entryX=1;entryY=0.5;entryDx=0;entryDy=0;" edge="1" parent="1" source="H3g5-_nsX15HZ03bGgUe-10" target="H3g5-_nsX15HZ03bGgUe-7">
          <mxGeometry width="50" height="50" relative="1" as="geometry">
            <mxPoint x="730" y="1010" as="sourcePoint" />
            <mxPoint x="750" y="910" as="targetPoint" />
            <Array as="points">
              <mxPoint x="790" y="1015" />
            </Array>
          </mxGeometry>
        </mxCell>
        <mxCell id="H3g5-_nsX15HZ03bGgUe-15" value="" style="endArrow=classic;html=1;rounded=1;curved=0;exitX=0;exitY=0.5;exitDx=0;exitDy=0;entryX=0.5;entryY=0;entryDx=0;entryDy=0;" edge="1" parent="1" source="H3g5-_nsX15HZ03bGgUe-8" target="H3g5-_nsX15HZ03bGgUe-9">
          <mxGeometry width="50" height="50" relative="1" as="geometry">
            <mxPoint x="119" y="1020" as="sourcePoint" />
            <mxPoint x="169" y="970" as="targetPoint" />
            <Array as="points">
              <mxPoint x="170" y="1065" />
            </Array>
          </mxGeometry>
        </mxCell>
        <mxCell id="H3g5-_nsX15HZ03bGgUe-16" value="" style="endArrow=classic;html=1;rounded=1;curved=0;" edge="1" parent="1">
          <mxGeometry width="50" height="50" relative="1" as="geometry">
            <mxPoint x="489.83000000000004" y="920" as="sourcePoint" />
            <mxPoint x="489.83000000000004" y="940" as="targetPoint" />
          </mxGeometry>
        </mxCell>
        <mxCell id="H3g5-_nsX15HZ03bGgUe-17" value="" style="endArrow=classic;html=1;rounded=1;curved=0;" edge="1" parent="1">
          <mxGeometry width="50" height="50" relative="1" as="geometry">
            <mxPoint x="489.83" y="1030" as="sourcePoint" />
            <mxPoint x="489.83" y="1050" as="targetPoint" />
          </mxGeometry>
        </mxCell>
        <mxCell id="H3g5-_nsX15HZ03bGgUe-20" value="TorchInductor" style="text;html=1;strokeColor=default;fillColor=none;align=center;verticalAlign=middle;whiteSpace=wrap;rounded=0;dashed=1;" vertex="1" parent="1">
          <mxGeometry x="740" y="810" width="100" height="20" as="geometry" />
        </mxCell>
        <mxCell id="H3g5-_nsX15HZ03bGgUe-21" value="TorchDynamo" style="text;html=1;strokeColor=default;fillColor=none;align=center;verticalAlign=middle;whiteSpace=wrap;rounded=0;dashed=1;" vertex="1" parent="1">
          <mxGeometry x="440" y="810" width="100" height="20" as="geometry" />
        </mxCell>
        <mxCell id="H3g5-_nsX15HZ03bGgUe-22" value="CPython" style="text;html=1;strokeColor=default;fillColor=none;align=center;verticalAlign=middle;whiteSpace=wrap;rounded=0;dashed=1;" vertex="1" parent="1">
          <mxGeometry x="120" y="810" width="100" height="20" as="geometry" />
        </mxCell>
        <mxCell id="H3g5-_nsX15HZ03bGgUe-23" value="CPython/CUDA" style="text;html=1;strokeColor=default;fillColor=none;align=center;verticalAlign=middle;whiteSpace=wrap;rounded=0;dashed=1;" vertex="1" parent="1">
          <mxGeometry x="710" y="470" width="90" height="20" as="geometry" />
        </mxCell>
      </root>
    </mxGraphModel>
  </diagram>
</mxfile>
